<?xml version="1.0" encoding="iso-8859-1"?>
<!-- Generator: Adobe Illustrator 19.0.0, SVG Export Plug-In . SVG Version: 6.00 Build 0)  -->
<svg version="1.1" id="Capa_1" xmlns="http://www.w3.org/2000/svg" xmlns:xlink="http://www.w3.org/1999/xlink" x="0px" y="0px"
	 viewBox="0 0 490 490" style="enable-background:new 0 0 490 490;" xml:space="preserve">
<g>
	<path d="M485.86,127.474L319.938,2.108C318.126,0.738,315.922,0,313.652,0H10.427C4.67,0,0.001,4.668,0.001,10.425v469.149
		C0.001,485.332,4.67,490,10.427,490h469.146c5.758,0,10.425-4.668,10.425-10.426V135.792
		C489.999,132.524,488.466,129.443,485.86,127.474z M448.48,125.366H324.077V31.371L448.48,125.366z M20.852,469.149V20.851h282.374
		v114.94c0,5.758,4.668,10.425,10.425,10.425h155.496v322.932H20.852z"/>
	<rect x="94.731" y="201.012" width="300.537" height="20.851"/>
	<rect x="94.731" y="293.05" width="300.537" height="20.851"/>
	<rect x="94.731" y="385.082" width="300.537" height="20.851"/>
</g>
<g>
</g>
<g>
</g>
<g>
</g>
<g>
</g>
<g>
</g>
<g>
</g>
<g>
</g>
<g>
</g>
<g>
</g>
<g>
</g>
<g>
</g>
<g>
</g>
<g>
</g>
<g>
</g>
<g>
</g>
</svg>
