<?xml version="1.0" encoding="iso-8859-1"?>
<!-- Generator: Adobe Illustrator 18.0.0, SVG Export Plug-In . SVG Version: 6.00 Build 0)  -->
<!DOCTYPE svg PUBLIC "-//W3C//DTD SVG 1.1//EN" "http://www.w3.org/Graphics/SVG/1.1/DTD/svg11.dtd">
<svg version="1.1" id="Capa_1" xmlns="http://www.w3.org/2000/svg" xmlns:xlink="http://www.w3.org/1999/xlink" x="0px" y="0px"
	 viewBox="0 0 274.664 274.664" style="enable-background:new 0 0 274.664 274.664;" xml:space="preserve">
<g>
	<path d="M267.164,27.156h-76.313c-2.096,0-4.096,0.877-5.516,2.418l-75.415,81.86c-4.274-5.806-11.151-9.581-18.896-9.581H74.29
		c-12.933,0-23.454,10.521-23.454,23.454v45.688H7.5c-4.142,0-7.5,3.357-7.5,7.5v61.512c0,4.143,3.358,7.5,7.5,7.5h76.305
		c2.096,0,4.096-0.877,5.516-2.418l130.311-141.422h47.533c4.142,0,7.5-3.357,7.5-7.5V34.656
		C274.664,30.514,271.306,27.156,267.164,27.156z M74.29,116.854h16.734c3.896,0,7.176,2.652,8.151,6.244l-33.339,36.188v-33.979
		C65.836,120.646,69.628,116.854,74.29,116.854z M259.664,88.668h-43.32c-2.096,0-4.096,0.877-5.516,2.418L80.517,232.508H15
		v-46.512h43.336c2.096,0,4.096-0.877,5.516-2.418L194.14,42.156h65.524V88.668z"/>
	<path d="M82.657,90.799c17.546,0,31.821-14.275,31.821-31.822c0-17.546-14.275-31.82-31.821-31.82s-31.821,14.274-31.821,31.82
		C50.836,76.523,65.111,90.799,82.657,90.799z M82.657,42.156c9.275,0,16.821,7.546,16.821,16.82
		c0,9.275-7.546,16.822-16.821,16.822s-16.821-7.547-16.821-16.822C65.836,49.702,73.382,42.156,82.657,42.156z"/>
</g>
<g>
</g>
<g>
</g>
<g>
</g>
<g>
</g>
<g>
</g>
<g>
</g>
<g>
</g>
<g>
</g>
<g>
</g>
<g>
</g>
<g>
</g>
<g>
</g>
<g>
</g>
<g>
</g>
<g>
</g>
</svg>
